<?xml version="1.0" standalone="no"?>
<!DOCTYPE svg PUBLIC "-//W3C//DTD SVG 20010904//EN"
 "http://www.w3.org/TR/2001/REC-SVG-20010904/DTD/svg10.dtd">
<svg version="1.0" xmlns="http://www.w3.org/2000/svg"
 width="300.000000pt" height="330.000000pt" viewBox="0 0 300.000000 330.000000"
 preserveAspectRatio="xMidYMid meet">
<metadata>
Created by potrace 1.10, written by Peter Selinger 2001-2011
</metadata>
<g transform="translate(0.000000,330.000000) scale(0.100000,-0.100000)"
fill="#000000" stroke="none">
<path d="M1390 2663 c-253 -38 -448 -133 -612 -297 -196 -196 -299 -445 -299
-721 0 -483 308 -878 780 -1002 131 -35 332 -36 466 -4 390 94 677 380 771
767 83 344 -20 708 -273 961 -113 113 -264 205 -416 254 -123 39 -312 59 -417
42z m286 -48 c135 -24 301 -96 414 -180 60 -44 170 -157 215 -220 115 -162
185 -380 185 -578 0 -201 -80 -435 -205 -596 -51 -67 -164 -176 -230 -221 -73
-50 -222 -116 -320 -141 -129 -34 -341 -34 -470 0 -274 70 -503 249 -635 494
-266 492 -69 1106 435 1355 44 22 104 47 133 57 139 45 324 56 478 30z"/>
<path d="M1470 2503 c0 -26 4 -43 8 -38 4 6 16 15 27 21 11 6 20 22 20 35 0
19 -6 25 -27 27 -27 3 -28 2 -28 -45z m45 17 c0 -8 -8 -16 -17 -18 -13 -2 -18
3 -18 18 0 15 5 20 18 18 9 -2 17 -10 17 -18z"/>
<path d="M1337 2534 c-13 -13 -7 -52 8 -58 27 -10 46 5 43 33 -3 26 -35 41
-51 25z m41 -27 c2 -12 -3 -17 -17 -17 -12 0 -21 6 -21 13 0 31 32 34 38 4z"/>
<path d="M1697 2501 c-6 -29 8 -51 32 -51 14 1 14 2 -2 15 -18 13 -17 14 5 17
31 4 29 30 -4 39 -23 6 -27 3 -31 -20z"/>
<path d="M1244 2488 c5 -23 3 -28 -14 -28 -11 0 -20 6 -20 14 0 8 -5 18 -11
22 -8 4 -9 -1 -4 -17 10 -34 20 -42 44 -34 23 7 27 31 10 55 -8 12 -9 9 -5
-12z"/>
<path d="M1817 2445 c-20 -42 -21 -49 -5 -39 7 5 24 8 38 8 43 1 38 65 -6 66
-6 0 -18 -16 -27 -35z m50 9 c8 -20 -13 -42 -27 -28 -12 12 -3 44 11 44 5 0
12 -7 16 -16z"/>
<path d="M1072 2452 c-11 -7 -10 -16 4 -45 10 -21 22 -37 26 -37 5 0 7 4 3 9
-3 6 2 14 11 19 22 13 15 56 -11 60 -11 1 -26 -2 -33 -6z m45 -18 c8 -21 -19
-38 -30 -18 -9 16 -1 34 14 34 5 0 12 -7 16 -16z"/>
<path d="M957 2383 c-4 -3 -7 -11 -7 -17 0 -6 5 -5 12 2 19 19 33 14 15 -6
-23 -25 -21 -32 7 -32 26 0 39 20 30 45 -6 15 -45 21 -57 8z"/>
<path d="M2025 2350 c-19 -21 -19 -22 19 -56 36 -33 39 -34 57 -18 11 9 19 22
19 27 0 6 -9 2 -20 -8 -16 -14 -23 -16 -32 -7 -9 9 -7 16 7 32 11 12 13 20 6
20 -6 0 -14 -7 -17 -15 -7 -18 -34 -20 -34 -2 0 7 5 18 12 25 6 6 9 14 6 17
-2 3 -13 -4 -23 -15z"/>
<path d="M1514 2293 c-8 -8 -14 -18 -14 -22 0 -11 35 -41 47 -41 6 0 13 -7 17
-15 3 -10 19 -15 46 -15 33 0 41 -3 38 -16 -2 -9 -11 -22 -21 -28 -15 -9 -22
-7 -37 12 -13 16 -29 22 -59 22 l-41 0 0 -70 0 -70 -55 0 c-43 0 -56 -4 -64
-19 -10 -17 -4 -20 70 -31 85 -13 82 -14 108 29 7 11 25 8 100 -17 50 -16 90
-27 89 -23 -2 3 -10 18 -17 33 -9 18 -32 34 -67 49 -30 12 -54 25 -54 30 0 5
13 3 30 -6 44 -23 56 -19 87 30 22 35 34 45 56 45 36 0 34 14 -7 55 -38 40
-49 42 -78 15 -31 -29 -40 -25 -33 14 8 42 -2 49 -73 51 -35 2 -58 -3 -68 -12z
m126 -24 c0 -11 -5 -19 -12 -19 -9 0 -9 -3 0 -12 19 -19 14 -28 -18 -28 -19 0
-33 7 -40 20 -6 11 -17 20 -25 20 -16 0 -29 16 -21 28 2 4 29 8 60 8 48 1 56
-2 56 -17z m115 -49 c4 -6 -10 -10 -35 -10 -25 0 -39 4 -35 10 3 6 19 10 35
10 16 0 32 -4 35 -10z m-30 -31 c-30 -5 -54 -4 -59 1 -7 7 12 10 50 9 l59 -1
-50 -9z m-144 -40 c20 -20 20 -22 3 -40 -16 -18 -15 -19 32 -39 62 -25 77 -34
81 -47 2 -5 -32 2 -77 15 -79 26 -80 26 -80 60 0 30 2 33 23 27 21 -6 21 -6 3
9 -30 24 -36 20 -36 -25 0 -59 -24 -46 -25 14 -1 45 0 47 27 47 15 0 37 -9 49
-21z m122 -18 c-25 -38 -27 -39 -55 -28 -17 7 -28 17 -26 22 1 6 5 9 8 8 3 -1
12 -4 21 -8 10 -4 20 3 29 20 7 14 21 25 31 25 16 0 15 -5 -8 -39z m-173 -101
c-12 -22 -23 -23 -94 -14 -63 9 -58 22 12 27 31 2 65 4 75 5 15 2 16 -1 7 -18z"/>
<path d="M797 2238 c-9 -5 -17 -14 -17 -20 0 -7 5 -6 15 2 8 6 19 9 25 5 13
-8 13 -35 -1 -35 -6 0 -8 7 -5 16 5 14 4 15 -9 4 -16 -14 -11 -30 9 -30 20 0
37 25 30 43 -8 21 -27 27 -47 15z"/>
<path d="M2157 2234 c-13 -13 -7 -52 8 -58 27 -10 46 5 43 33 -3 26 -35 41
-51 25z m41 -27 c2 -12 -3 -17 -17 -17 -12 0 -21 6 -21 13 0 31 32 34 38 4z"/>
<path d="M1190 2196 c0 -27 42 -46 102 -46 31 0 60 5 63 10 3 6 34 10 67 10
34 0 58 3 55 7 -7 7 -63 6 -170 -4 -49 -4 -72 -2 -84 8 -14 12 9 15 158 19
l174 6 -182 2 c-154 2 -183 0 -183 -12z"/>
<path d="M1390 2150 c0 -12 79 -10 86 2 3 4 -15 8 -40 8 -25 0 -46 -4 -46 -10z"/>
<path d="M712 2138 c-17 -17 -15 -48 2 -48 8 0 18 5 21 10 3 6 11 10 18 10 8
0 8 -3 -1 -12 -17 -17 -15 -33 3 -18 8 7 15 18 15 26 0 22 -20 27 -41 8 -20
-18 -27 -6 -7 14 6 6 9 14 7 17 -3 2 -11 -1 -17 -7z"/>
<path d="M2272 2120 c10 -16 10 -22 0 -32 -11 -11 -16 -9 -28 6 -7 11 -17 17
-20 13 -10 -10 16 -37 37 -37 10 0 21 5 24 11 9 14 -3 59 -15 59 -6 0 -5 -8 2
-20z"/>
<path d="M1308 2122 c-33 -4 -52 -25 -43 -51 7 -24 56 -36 84 -22 11 6 42 11
70 11 27 0 53 5 56 10 9 14 -108 13 -122 -1 -6 -6 -23 -9 -39 -7 -41 4 -41 42
0 46 16 2 33 -1 39 -7 6 -6 38 -11 71 -11 32 0 56 3 52 7 -4 4 -22 6 -40 5
-19 -2 -49 3 -67 10 -19 7 -46 12 -61 10z"/>
<path d="M637 2006 c-4 -9 -2 -16 2 -16 5 0 11 5 13 12 3 8 11 5 25 -9 11 -11
25 -18 31 -14 13 8 3 25 -18 30 -8 2 -22 6 -31 8 -9 3 -19 -3 -22 -11z"/>
<path d="M2338 1923 c-10 -2 -18 -9 -18 -13 0 -6 10 -6 24 0 13 5 27 6 30 3
12 -13 5 -24 -21 -34 -16 -6 -23 -13 -16 -16 22 -8 54 17 51 40 -3 22 -19 29
-50 20z"/>
<path d="M597 1903 c-4 -3 -7 -16 -6 -27 0 -20 1 -20 9 2 13 30 24 28 16 -3
-5 -20 -3 -25 13 -25 23 0 35 28 20 46 -12 15 -41 19 -52 7z"/>
<path d="M1194 1833 c-12 -2 -30 -13 -40 -25 -17 -18 -19 -38 -19 -160 0 -135
1 -140 24 -159 32 -26 95 -25 121 1 16 16 20 33 20 80 l0 60 -35 0 c-35 0 -35
0 -30 -37 6 -41 -6 -70 -24 -59 -7 5 -11 49 -11 122 0 105 2 115 18 112 13 -3
17 -13 16 -41 -1 -36 0 -37 32 -37 l34 0 0 55 c0 46 -4 57 -22 69 -29 18 -57
24 -84 19z"/>
<path d="M1379 1832 c-54 -6 -61 -27 -61 -177 0 -128 2 -139 23 -161 29 -31
90 -33 119 -4 28 28 32 54 28 183 -4 145 -21 169 -109 159z m39 -179 c-2 -97
-6 -118 -18 -118 -12 0 -16 20 -18 104 -3 115 0 131 23 131 13 0 15 -16 13
-117z"/>
<path d="M880 1785 c0 -43 -14 -194 -25 -277 -5 -38 -5 -38 30 -38 32 0 35 2
35 30 0 25 4 30 25 30 21 0 25 -5 25 -30 0 -28 3 -30 35 -30 42 0 40 -11 20
185 -8 77 -15 148 -15 158 0 14 -10 17 -65 17 l-65 0 0 -45z m82 -127 c4 -62
2 -68 -15 -68 -18 0 -19 5 -13 46 3 26 6 70 7 98 1 45 2 48 9 21 5 -16 10 -60
12 -97z"/>
<path d="M1505 1650 l0 -180 33 0 32 0 0 94 c0 114 -7 156 -25 149 -21 -7 -16
56 5 67 25 13 39 -7 33 -46 -3 -19 2 -86 12 -149 l17 -115 32 0 33 0 17 118
c9 65 14 132 10 148 -6 32 15 62 36 49 15 -9 13 -76 -2 -72 -10 1 -14 -29 -16
-120 l-3 -123 31 0 30 0 0 180 0 180 -55 0 c-50 0 -55 -2 -56 -22 0 -13 -6
-65 -13 -115 -6 -51 -8 -93 -3 -93 5 0 7 -10 5 -22 -5 -39 -23 -15 -23 32 -1
25 -5 84 -9 133 l-8 87 -57 0 -56 0 0 -180z"/>
<path d="M1800 1650 l0 -180 75 0 75 0 0 35 c0 34 -1 35 -40 35 l-40 0 0 46 0
46 35 -6 c35 -7 35 -7 35 29 0 33 -2 35 -35 35 -33 0 -35 2 -35 35 0 33 2 35
35 35 33 0 35 2 35 35 l0 35 -70 0 -70 0 0 -180z m58 -7 c-16 -15 -18 -15 -24
0 -3 9 -3 25 0 34 6 15 8 15 24 0 15 -16 15 -18 0 -34z"/>
<path d="M1960 1650 l0 -180 35 0 35 0 0 86 c0 64 3 85 13 82 8 -3 13 -32 15
-86 l3 -82 34 0 35 0 0 85 c0 69 -3 86 -17 95 -17 10 -17 10 0 20 13 9 17 24
17 69 0 78 -15 91 -103 91 l-67 0 0 -180z m100 86 c0 -21 -6 -36 -15 -40 -12
-4 -15 3 -15 34 0 29 4 40 15 40 10 0 15 -10 15 -34z m-41 -83 c-15 -18 -34
-1 -25 22 5 14 9 15 21 5 12 -10 13 -16 4 -27z"/>
<path d="M2341 1770 c0 -14 4 -32 9 -40 8 -13 10 -13 10 2 0 10 14 20 38 27
l37 11 -42 -4 c-33 -3 -43 0 -46 13 -3 9 -5 6 -6 -9z"/>
<path d="M567 1773 c-4 -3 -7 -15 -7 -25 0 -22 28 -24 36 -3 4 8 10 15 15 15
4 0 5 -7 2 -17 -4 -11 -3 -14 5 -9 15 9 15 33 1 42 -7 4 -20 -4 -31 -17 l-20
-24 5 23 c5 23 4 26 -6 15z"/>
<path d="M631 1524 c-1 -15 -12 -24 -38 -32 l-38 -11 37 4 c28 3 40 -1 48 -13
8 -15 9 -15 9 3 -1 11 -5 31 -9 45 -7 22 -8 22 -9 4z"/>
<path d="M2360 1501 c0 -29 17 -35 32 -11 17 27 27 26 21 -2 -4 -19 -3 -20 6
-8 17 23 13 40 -9 40 -11 0 -20 -7 -20 -15 0 -8 -5 -15 -11 -15 -6 0 -9 7 -5
15 3 8 1 15 -4 15 -6 0 -10 -9 -10 -19z"/>
<path d="M860 1285 l0 -125 104 0 104 0 32 50 c18 28 36 50 40 50 4 0 22 -22
40 -50 26 -41 37 -50 61 -50 26 0 29 3 29 35 0 24 5 35 15 35 11 0 88 32 137
58 4 2 5 -27 1 -63 -6 -62 -5 -67 13 -63 15 3 18 11 16 36 -3 26 1 34 20 41
67 25 66 25 95 -29 l28 -50 175 5 c96 2 184 5 195 5 11 0 48 -2 82 -6 57 -6
63 -4 87 19 50 50 22 92 -80 122 -46 13 -54 19 -54 39 0 13 7 27 16 30 24 9
73 7 95 -4 16 -9 19 -7 19 8 0 31 -75 43 -123 21 -63 -29 -51 -97 20 -119 70
-21 92 -32 97 -47 11 -27 -14 -43 -64 -43 -63 0 -80 7 -80 34 0 36 -22 56 -84
74 -67 20 -88 41 -66 67 12 14 26 16 72 12 61 -5 77 6 32 23 -68 26 -144 -5
-144 -60 0 -35 13 -46 85 -68 65 -19 86 -41 66 -66 -16 -19 -101 -22 -132 -6
-13 7 -19 7 -19 0 0 -6 -28 -10 -70 -10 l-70 0 0 40 0 40 60 0 c47 0 60 3 60
15 0 12 -13 15 -60 15 l-60 0 0 40 0 40 75 0 c60 0 75 3 75 15 0 12 -17 15
-90 15 l-90 0 0 -26 0 -26 -18 22 c-15 18 -31 23 -91 28 -49 3 -75 1 -80 -6
-5 -8 -17 -9 -41 -2 -19 6 -69 10 -110 10 l-76 0 -29 -50 c-17 -27 -32 -50
-35 -50 -3 0 -18 23 -35 50 l-29 50 -108 0 -108 0 0 -125z m222 -48 l-36 -52
-78 3 -78 4 0 39 0 39 60 0 c47 0 60 3 60 15 0 12 -13 15 -60 15 l-60 0 0 40
0 40 75 0 c53 0 75 4 75 13 0 6 18 -14 39 -46 l39 -59 -36 -51z m156 -3 l-3
-55 -36 55 -36 54 36 56 36 55 3 -54 c2 -30 2 -80 0 -111z m153 136 c21 -12
26 -52 7 -67 -7 -5 -33 -18 -58 -28 -25 -9 -51 -19 -57 -22 -10 -4 -13 12 -13
61 l0 66 51 0 c28 0 59 -5 70 -10z m189 -5 c21 -26 6 -49 -50 -77 -78 -38 -80
-38 -80 32 l0 60 59 0 c39 0 63 -5 71 -15z m38 -142 l-3 -38 -23 43 -23 44 23
21 23 22 3 -27 c2 -15 2 -45 0 -65z"/>
<path d="M2335 1390 c-10 -17 5 -50 24 -50 21 0 41 19 40 40 0 10 -4 7 -11 -7
-15 -31 -30 -29 -18 2 8 21 7 25 -10 25 -10 0 -22 -5 -25 -10z"/>
<path d="M606 1374 c-25 -24 -3 -58 32 -49 31 8 38 13 30 21 -4 3 -15 1 -26
-5 -11 -6 -22 -7 -26 -4 -11 12 -6 33 8 33 8 0 18 5 21 10 10 16 -22 11 -39
-6z"/>
<path d="M2282 1272 c-13 -9 -3 -25 18 -31 31 -7 43 -6 47 7 3 8 -1 10 -13 5
-10 -4 -21 0 -29 10 -6 8 -16 12 -23 9z"/>
<path d="M701 1167 c-6 -8 -9 -22 -5 -31 9 -22 23 -20 17 3 -7 27 17 38 34 15
14 -19 15 -19 11 1 -4 24 -40 32 -57 12z"/>
<path d="M2230 1165 c-7 -8 -9 -22 -6 -31 6 -15 8 -15 28 2 21 19 21 19 15 -5
-6 -23 -5 -23 11 -8 22 23 1 47 -23 27 -20 -17 -32 -5 -15 15 7 8 10 15 7 15
-2 0 -10 -7 -17 -15z"/>
<path d="M779 1064 c-16 -20 -1 -48 29 -52 25 -4 39 32 22 53 -16 19 -34 19
-51 -1z m51 -19 c0 -19 -20 -29 -32 -17 -15 15 -2 43 17 36 8 -3 15 -12 15
-19z"/>
<path d="M2144 1055 c-4 -8 -3 -22 0 -31 7 -20 58 -15 64 6 4 12 2 13 -9 3
-17 -17 -37 -17 -21 -1 7 7 12 18 12 25 0 18 -39 16 -46 -2z"/>
<path d="M877 965 c-10 -14 -13 -25 -7 -25 6 0 13 7 16 15 7 17 34 21 34 4 0
-6 -5 -20 -11 -32 -12 -21 -11 -21 8 -4 11 9 25 17 31 17 15 0 16 -26 2 -35
-5 -3 -10 -11 -10 -17 0 -7 6 -6 15 2 23 19 18 41 -17 72 -17 15 -34 28 -37
28 -3 0 -14 -12 -24 -25z"/>
<path d="M1975 910 c-3 -6 -3 -19 0 -31 8 -24 56 -23 63 1 4 12 2 13 -9 3 -7
-7 -20 -13 -28 -13 -12 0 -10 5 7 18 13 10 20 21 16 25 -11 10 -42 9 -49 -3z"/>
<path d="M1033 869 c-12 -21 -17 -39 -12 -39 5 0 15 12 22 28 6 15 16 30 20
33 5 4 5 9 0 12 -4 3 -18 -12 -30 -34z"/>
<path d="M1883 874 c3 -4 -4 -15 -16 -25 -18 -14 -20 -21 -11 -36 13 -21 33
-27 53 -14 11 7 11 15 0 45 -7 20 -17 36 -23 36 -5 0 -7 -3 -3 -6z m20 -44 c6
-23 -10 -37 -25 -22 -12 12 -4 42 11 42 5 0 11 -9 14 -20z"/>
<path d="M1170 843 c0 -6 -11 -8 -24 -6 -33 7 -53 -28 -30 -51 8 -9 21 -16 28
-16 13 0 41 68 32 77 -3 4 -6 2 -6 -4z m-15 -34 c0 -7 -8 -15 -17 -17 -18 -3
-25 18 -11 32 10 10 28 1 28 -15z"/>
<path d="M1732 802 c-9 -7 -10 -15 -3 -35 13 -34 20 -34 18 -1 -3 35 20 43 29
10 3 -14 10 -26 15 -26 4 0 3 14 -2 30 -11 30 -31 38 -57 22z"/>
<path d="M1265 786 c19 -15 19 -15 -8 -16 -39 0 -33 -34 6 -38 27 -3 28 -1 25
30 -2 24 -9 34 -23 36 -20 4 -20 4 0 -12z"/>
<path d="M1510 781 c0 -5 -10 -11 -22 -13 -18 -2 -23 -10 -23 -33 0 -25 4 -30
28 -33 26 -3 27 -2 27 42 0 25 -2 46 -5 46 -3 0 -5 -4 -5 -9z m-3 -37 c8 -21
-13 -42 -28 -27 -13 13 -5 43 11 43 6 0 13 -7 17 -16z"/>
<path d="M1602 768 c-26 -26 1 -65 38 -53 32 10 20 65 -15 65 -6 0 -16 -5 -23
-12z m48 -23 c0 -18 -27 -26 -39 -11 -7 9 -7 16 0 23 14 14 39 6 39 -12z"/>
</g>
</svg>
